<?xml version="1.0" encoding="UTF-8"?>
<svg id="Layer_2" data-name="Layer 2" xmlns="http://www.w3.org/2000/svg" viewBox="0 0 12.37 9.68">
  <defs>
    <style>
      .cls-1 {
        fill: #00d;
        stroke-width: 0px;
      }
    </style>
  </defs>
  <g id="Layer_1-2" data-name="Layer 1">
    <g>
      <path class="cls-1" d="M.48.6c.27.33,1.15,1.42,1.95,2.42.81,1,1.47,1.82,1.47,1.82s-.66.82-1.47,1.82c-.81,1-1.69,2.09-1.95,2.42l-.48.6h1.95s1.95,0,1.95,0l1.95-2.42c1.07-1.33,1.95-2.42,1.95-2.42s-.88-1.09-1.95-2.42L3.91,0H0s.48.6.48.6Z"/>
      <path class="cls-1" d="M4.55,0s3.9,4.83,3.9,4.83-3.87,4.8-3.9,4.83c0,0,.09,0,1.95,0h1.95l1.95-2.42,1.95-2.42-1.95-2.42-1.95-2.42h-1.95c-1.86,0-1.95,0-1.95,0Z"/>
    </g>
  </g>
</svg>