<svg width="50" height="50" viewBox="0 0 50 50" fill="none" xmlns="http://www.w3.org/2000/svg">
<g style="mix-blend-mode:exclusion" opacity="0.9">
<path d="M17.1875 43.75C18.9134 43.75 20.3125 42.3509 20.3125 40.625C20.3125 38.8991 18.9134 37.5 17.1875 37.5C15.4616 37.5 14.0625 38.8991 14.0625 40.625C14.0625 42.3509 15.4616 43.75 17.1875 43.75Z" fill="white"/>
<path d="M39.0625 43.75C40.7884 43.75 42.1875 42.3509 42.1875 40.625C42.1875 38.8991 40.7884 37.5 39.0625 37.5C37.3366 37.5 35.9375 38.8991 35.9375 40.625C35.9375 42.3509 37.3366 43.75 39.0625 43.75Z" fill="white"/>
<path d="M44.6094 11.7949C44.3899 11.5264 44.1133 11.3102 43.7998 11.1618C43.4863 11.0135 43.1437 10.9369 42.7969 10.9375H13.0752L12.4766 7.54102C12.4127 7.17923 12.2235 6.8515 11.942 6.6154C11.6605 6.3793 11.3049 6.24992 10.9375 6.25H4.6875C4.2731 6.25 3.87567 6.41462 3.58265 6.70765C3.28962 7.00067 3.125 7.3981 3.125 7.8125C3.125 8.2269 3.28962 8.62433 3.58265 8.91735C3.87567 9.21038 4.2731 9.375 4.6875 9.375H9.62695L14.0859 34.6465C14.1498 35.0083 14.339 35.336 14.6205 35.5721C14.902 35.8082 15.2576 35.9376 15.625 35.9375H40.625C41.0394 35.9375 41.4368 35.7729 41.7299 35.4799C42.0229 35.1868 42.1875 34.7894 42.1875 34.375C42.1875 33.9606 42.0229 33.5632 41.7299 33.2701C41.4368 32.9771 41.0394 32.8125 40.625 32.8125H16.9355L16.3848 29.6875H39.9844C40.5262 29.6868 41.0512 29.4989 41.4705 29.1557C41.8898 28.8124 42.1775 28.3348 42.2852 27.8037L45.0977 13.7412C45.1654 13.4009 45.1568 13.0497 45.0723 12.7132C44.9879 12.3766 44.8298 12.063 44.6094 11.7949Z" fill="white"/>
</g>
</svg>
