<?xml version="1.0" encoding="UTF-8"?>
<svg id="Layer_2" data-name="Layer 2" xmlns="http://www.w3.org/2000/svg" xmlns:xlink="http://www.w3.org/1999/xlink" viewBox="0 0 42.02 37.5">
  <defs>
    <style>
      .cls-1 {
        fill: url(#linear-gradient);
      }

      .cls-1, .cls-2, .cls-3 {
        stroke-width: 0px;
      }

      .cls-4 {
        opacity: .9;
      }

      .cls-2 {
        fill: url(#linear-gradient-2);
      }

      .cls-3 {
        fill: url(#linear-gradient-3);
      }
    </style>
    <linearGradient id="linear-gradient" x1="10.94" y1="34.38" x2="17.18" y2="34.38" gradientUnits="userSpaceOnUse">
      <stop offset="0" stop-color="#00d2e9"/>
      <stop offset=".13" stop-color="#01c6e4"/>
      <stop offset=".43" stop-color="#03b1dd"/>
      <stop offset=".72" stop-color="#04a5d9"/>
      <stop offset="1" stop-color="#05a1d8"/>
    </linearGradient>
    <linearGradient id="linear-gradient-2" x1="32.82" y1="34.38" x2="39.06" y2="34.38" gradientUnits="userSpaceOnUse">
      <stop offset="0" stop-color="#6acbff"/>
      <stop offset=".19" stop-color="#47bcf1"/>
      <stop offset=".4" stop-color="#2ab0e6"/>
      <stop offset=".61" stop-color="#15a7de"/>
      <stop offset=".81" stop-color="#09a2d9"/>
      <stop offset="1" stop-color="#05a1d8"/>
    </linearGradient>
    <linearGradient id="linear-gradient-3" x1="0" y1="14.85" x2="42.02" y2="14.85" gradientUnits="userSpaceOnUse">
      <stop offset="0" stop-color="#a983fc"/>
      <stop offset=".05" stop-color="#9a85f8"/>
      <stop offset=".21" stop-color="#6d8dee"/>
      <stop offset=".37" stop-color="#4794e6"/>
      <stop offset=".53" stop-color="#2a9ae0"/>
      <stop offset=".69" stop-color="#159ddb"/>
      <stop offset=".85" stop-color="#09a0d8"/>
      <stop offset="1" stop-color="#05a1d8"/>
    </linearGradient>
  </defs>
  <g id="Layer_1-2" data-name="Layer 1-2">
    <g class="cls-4">
      <path class="cls-1" d="M14.06,37.5c1.73,0,3.12-1.4,3.12-3.12s-1.4-3.12-3.12-3.12-3.12,1.4-3.12,3.12,1.4,3.12,3.12,3.12Z"/>
      <path class="cls-2" d="M35.94,37.5c1.73,0,3.12-1.4,3.12-3.12s-1.4-3.12-3.12-3.12-3.12,1.4-3.12,3.12,1.4,3.12,3.12,3.12Z"/>
      <path class="cls-3" d="M41.48,5.54c-.22-.27-.5-.48-.81-.63s-.66-.22-1-.22H9.95l-.6-3.4c-.06-.36-.25-.69-.53-.93-.28-.23-.64-.36-1.01-.36H1.56c-.41,0-.81.16-1.1.46-.29.29-.46.69-.46,1.1s.16.81.46,1.1c.29.29.69.46,1.1.46h4.94l4.46,25.27c.06.36.25.69.53.93s.64.37,1,.37h25c.41,0,.81-.16,1.1-.46.29-.29.46-.69.46-1.1s-.16-.81-.46-1.1c-.29-.29-.69-.46-1.1-.46H13.81l-.55-3.12h23.6c.54,0,1.07-.19,1.49-.53.42-.34.71-.82.81-1.35l2.81-14.06c.07-.34.06-.69-.03-1.03-.08-.34-.24-.65-.46-.92v-.02Z"/>
    </g>
  </g>
</svg>