<?xml version="1.0" encoding="UTF-8"?>
<svg id="Layer_2" data-name="Layer 2" xmlns="http://www.w3.org/2000/svg" viewBox="0 0 760.57 744">
  <defs>
    <style>
      .cls-1, .cls-2 {
        stroke-width: 0px;
      }

      .cls-2 {
        fill: #fff;
      }
    </style>
  </defs>
  <g id="Layer_2-2" data-name="Layer 2">
    <g>
      <rect class="cls-1" width="760.57" height="744"/>
      <g id="Layer_1-2" data-name="Layer 1-2">
        <g>
          <circle class="cls-2" cx="380.29" cy="372" r="142.5"/>
          <path class="cls-2" d="M380.29,209.14c11.24,0,20.36-9.11,20.36-20.36v-101.79c0-11.24-9.11-20.36-20.36-20.36s-20.36,9.11-20.36,20.36v101.79c0,11.24,9.11,20.36,20.36,20.36Z"/>
          <path class="cls-2" d="M236.37,256.78c7.31,8.54,20.16,9.53,28.7,2.22s9.53-20.16,2.22-28.7c-.68-.8-1.42-1.54-2.22-2.22l-71.86-72.07c-7.98-7.98-20.92-7.98-28.91,0-7.98,7.98-7.98,20.92,0,28.91l72.07,71.86h0Z"/>
          <path class="cls-2" d="M217.42,372c0-11.24-9.11-20.36-20.36-20.36h-101.79c-11.24,0-20.36,9.11-20.36,20.36s9.11,20.36,20.36,20.36h101.79c11.24,0,20.36-9.11,20.36-20.36Z"/>
          <path class="cls-2" d="M236.37,487.22l-72.07,71.86c-8.54,7.31-9.53,20.16-2.22,28.7,7.31,8.54,20.16,9.53,28.7,2.22.8-.68,1.54-1.42,2.22-2.22l72.07-72.07c7.31-8.54,6.32-21.39-2.22-28.7-7.62-6.53-18.86-6.53-26.48,0v.2h0Z"/>
          <path class="cls-2" d="M380.29,534.86c-11.24,0-20.36,9.11-20.36,20.36v101.79c0,11.24,9.11,20.36,20.36,20.36s20.36-9.11,20.36-20.36v-101.79c0-11.24-9.11-20.36-20.36-20.36Z"/>
          <path class="cls-2" d="M524.22,487.22c-8.54-7.31-21.39-6.32-28.7,2.22-6.53,7.62-6.53,18.86,0,26.48l72.07,72.07c8.54,7.31,21.39,6.32,28.7-2.22,6.53-7.62,6.53-18.86,0-26.48l-72.07-72.07h0Z"/>
          <path class="cls-2" d="M665.3,351.64h-101.79c-11.24,0-20.36,9.11-20.36,20.36s9.11,20.36,20.36,20.36h101.79c11.24,0,20.36-9.11,20.36-20.36s-9.11-20.36-20.36-20.36h0Z"/>
          <path class="cls-2" d="M509.76,262.88c5.41.03,10.61-2.09,14.45-5.9l72.07-72.07c7.31-8.54,6.32-21.39-2.22-28.7-7.62-6.53-18.86-6.53-26.48,0l-72.07,71.86c-7.98,7.92-8.04,20.81-.12,28.79,3.85,3.88,9.1,6.05,14.57,6.02h-.2Z"/>
        </g>
      </g>
    </g>
  </g>
</svg>