<?xml version="1.0" encoding="UTF-8"?>
<svg id="Layer_2" data-name="Layer 2" xmlns="http://www.w3.org/2000/svg" viewBox="0 0 36 35.33">
  <defs>
    <style>
      .cls-1 {
        opacity: .9;
      }

      .cls-2 {
        stroke-width: 0px;
      }
    </style>
  </defs>
  <g id="Layer_1-2" data-name="Layer 1">
    <g class="cls-1">
      <path class="cls-2" d="M18,0c2.39,0,4.68.93,6.36,2.59,1.69,1.66,2.64,3.9,2.64,6.25s-.95,4.59-2.64,6.25c-1.69,1.66-3.98,2.59-6.36,2.59s-4.68-.93-6.36-2.59c-1.69-1.66-2.64-3.9-2.64-6.25s.95-4.59,2.64-6.25c1.69-1.66,3.98-2.59,6.36-2.59ZM18,22.08c9.94,0,18,3.95,18,8.83v4.42H0v-4.42c0-4.88,8.06-8.83,18-8.83Z"/>
    </g>
  </g>
</svg>