<svg width="54" height="53" viewBox="0 0 54 53" fill="none" xmlns="http://www.w3.org/2000/svg">
<g style="mix-blend-mode:exclusion" opacity="0.9">
<path d="M27 8.83331C29.3869 8.83331 31.6761 9.76396 33.364 11.4205C35.0518 13.0771 36 15.3239 36 17.6666C36 20.0094 35.0518 22.2562 33.364 23.9128C31.6761 25.5693 29.3869 26.5 27 26.5C24.6131 26.5 22.3239 25.5693 20.636 23.9128C18.9482 22.2562 18 20.0094 18 17.6666C18 15.3239 18.9482 13.0771 20.636 11.4205C22.3239 9.76396 24.6131 8.83331 27 8.83331ZM27 30.9166C36.945 30.9166 45 34.8696 45 39.75V44.1666H9V39.75C9 34.8696 17.055 30.9166 27 30.9166Z" fill="white"/>
</g>
</svg>
