<?xml version="1.0" standalone="no"?>
<!DOCTYPE svg PUBLIC "-//W3C//DTD SVG 20010904//EN"
 "http://www.w3.org/TR/2001/REC-SVG-20010904/DTD/svg10.dtd">
<svg version="1.0" xmlns="http://www.w3.org/2000/svg"
 width="4680.000000pt" height="3662.000000pt" viewBox="0 0 4680.000000 3662.000000"
 preserveAspectRatio="xMidYMid meet">

<g transform="translate(0.000000,3662.000000) scale(0.100000,-0.100000)"
fill="#000000" stroke="none">
<path d="M1833 34352 c1008 -1247 4334 -5365 7392 -9150 3058 -3786 5560
-6887 5560 -6892 0 -5 -2502 -3106 -5560 -6892 -3058 -3785 -6384 -7903 -7392
-9150 l-1832 -2268 7397 1 7397 0 7390 9150 c4065 5032 7390 9154 7390 9159 0
5 -3325 4127 -7390 9159 l-7390 9150 -7397 0 -7397 1 1832 -2268z"/>
<path d="M17232 36603 c107 -126 14768 -18285 14768 -18293 0 -8 -14661
-18167 -14768 -18292 -14 -17 338 -18 7380 -18 l7396 0 7395 9155 7396 9155
-7396 9155 -7395 9155 -7396 0 c-7042 0 -7394 -1 -7380 -17z"/>
</g>
</svg>
